<svg width="512" height="512" viewBox="0 0 512 512" fill="none" xmlns="http://www.w3.org/2000/svg">
<mask id="mask0_10_27" style="mask-type:alpha" maskUnits="userSpaceOnUse" x="0" y="0" width="512" height="512">
<rect width="512" height="512" fill="#712828"/>
</mask>
<g mask="url(#mask0_10_27)">
<mask id="mask1_10_27" style="mask-type:alpha" maskUnits="userSpaceOnUse" x="18" y="5" width="465" height="501">
<path d="M28.5047 160.648C41.4788 146.666 62.7648 144.364 78.4277 155.25L402.728 380.632C451.932 414.828 433.564 491.636 374.213 499.871C354.675 502.582 334.951 496.387 320.472 482.993L30.5704 214.803C15.0294 200.426 14.1041 176.167 28.5047 160.648Z" fill="white"/>
<path d="M29.8639 347.129C14.2163 330.743 15.6213 304.557 32.9323 289.94L346.393 25.2547C393.345 -14.3915 465.52 14.6379 471.945 75.7529C475.117 105.926 460.175 135.127 433.847 150.205L77.8338 354.093C62.1448 363.078 42.3504 360.205 29.8639 347.129Z" fill="white"/>
<path d="M403.99 5.76538C449.253 5.76538 485.105 44.0004 482.196 89.1697L460.292 429.252C456.346 490.526 388.841 525.798 336.287 494.047C309.627 477.94 294.42 448.098 297.057 417.063L325.904 77.4991C329.35 36.9357 363.281 5.76538 403.99 5.76538Z" fill="white"/>
</mask>
<g mask="url(#mask1_10_27)">
<rect x="-10.8215" y="-18.7144" width="548.571" height="548.571" fill="url(#paint0_radial_10_27)"/>
<mask id="mask2_10_27" style="mask-type:alpha" maskUnits="userSpaceOnUse" x="-11" y="-19" width="549" height="549">
<rect x="-10.8215" y="-18.7144" width="548.571" height="548.571" fill="url(#paint1_radial_10_27)"/>
</mask>
<g mask="url(#mask2_10_27)">
<rect x="-10.8215" y="-18.7144" width="548.571" height="548.571" fill="url(#paint2_linear_10_27)"/>
</g>
</g>
<rect x="96" y="96" width="320" height="320" rx="30" fill="url(#paint3_radial_10_27)"/>
<path d="M182.36 276L147.8 163.86H172.64L192.62 238.02L211.34 163.86H235.64L201.44 276H182.36ZM279.02 278.16C271.46 278.16 264.14 277.14 257.06 275.1C250.1 272.94 244.46 269.64 240.14 265.2L252.38 244.86L253.28 243.42L255.08 244.5C255.32 245.34 255.62 246.24 255.98 247.2C256.46 248.04 257.48 249.12 259.04 250.44C261.92 252.36 265.04 253.98 268.4 255.3C271.76 256.62 275.24 257.34 278.84 257.46C281.36 257.46 283.58 257.28 285.5 256.92C287.54 256.56 289.28 255.96 290.72 255.12C292.16 254.28 293.24 253.14 293.96 251.7C294.8 250.14 295.22 248.28 295.22 246.12C295.22 245.04 295.04 243.96 294.68 242.88C294.44 241.68 293.96 240.54 293.24 239.46C292.52 238.26 291.38 237.06 289.82 235.86C288.38 234.66 286.52 233.34 284.24 231.9C281.96 230.46 279.08 228.96 275.6 227.4C267.92 223.68 261.8 220.14 257.24 216.78C252.8 213.42 249.56 209.76 247.52 205.8C245.6 201.72 244.64 196.86 244.64 191.22C244.64 185.7 246.26 180.72 249.5 176.28C252.86 171.84 257.36 168.3 263 165.66C268.64 163.02 274.82 161.7 281.54 161.7C286.7 161.7 291.38 162.24 295.58 163.32C299.9 164.4 303.86 166.02 307.46 168.18C311.18 170.34 314.6 173.1 317.72 176.46L302.42 193.02L301.34 194.28L299.72 192.84C299.6 191.88 299.42 190.98 299.18 190.14C298.94 189.18 298.16 187.98 296.84 186.54C294.92 184.86 292.88 183.78 290.72 183.3C288.56 182.7 286.04 182.4 283.16 182.4C281.12 182.4 279.26 182.64 277.58 183.12C275.9 183.48 274.46 184.08 273.26 184.92C272.06 185.64 271.1 186.48 270.38 187.44C269.78 188.4 269.48 189.42 269.48 190.5C269.48 191.58 269.6 192.6 269.84 193.56C270.08 194.4 270.56 195.3 271.28 196.26C272 197.22 273.08 198.24 274.52 199.32C276.08 200.4 278.06 201.66 280.46 203.1C282.98 204.42 286.1 205.98 289.82 207.78C295.58 210.66 300.44 213.42 304.4 216.06C308.36 218.7 311.48 221.46 313.76 224.34C316.16 227.1 317.84 230.16 318.8 233.52C319.88 236.88 320.42 240.72 320.42 245.04C320.42 250.68 318.98 256.02 316.1 261.06C313.22 266.1 308.72 270.24 302.6 273.48C296.48 276.6 288.62 278.16 279.02 278.16Z" fill="white"/>
<rect x="146" y="346" width="120" height="20" fill="white"/>
</g>
<defs>
<radialGradient id="paint0_radial_10_27" cx="0" cy="0" r="1" gradientUnits="userSpaceOnUse" gradientTransform="translate(44.8928 354.411) rotate(-37.7193) scale(527.576 768.226)">
<stop stop-color="#00D1FF"/>
<stop offset="0.380908" stop-color="#104FF0"/>
<stop offset="1" stop-color="#6227F0"/>
</radialGradient>
<radialGradient id="paint1_radial_10_27" cx="0" cy="0" r="1" gradientUnits="userSpaceOnUse" gradientTransform="translate(441.321 65.125) rotate(101.051) scale(721.049 721.049)">
<stop stop-color="white"/>
<stop offset="1" stop-color="#D9D9D9" stop-opacity="0"/>
</radialGradient>
<linearGradient id="paint2_linear_10_27" x1="484.446" y1="-18.7144" x2="373.018" y2="529.857" gradientUnits="userSpaceOnUse">
<stop stop-color="#FF7A00"/>
<stop offset="0.55" stop-color="#DD37EB"/>
<stop offset="1" stop-color="#00B3FF"/>
</linearGradient>
<radialGradient id="paint3_radial_10_27" cx="0" cy="0" r="1" gradientUnits="userSpaceOnUse" gradientTransform="translate(96 96) rotate(45) scale(452.548)">
<stop stop-color="#393939"/>
<stop offset="1"/>
</radialGradient>
</defs>
</svg>
